<?xml version="1.0" standalone="no"?>
<!DOCTYPE svg PUBLIC "-//W3C//DTD SVG 20010904//EN"
 "http://www.w3.org/TR/2001/REC-SVG-20010904/DTD/svg10.dtd">
<svg version="1.0" xmlns="http://www.w3.org/2000/svg"
 width="1536.000000pt" height="1536.000000pt" viewBox="0 0 1536.000000 1536.000000"
 preserveAspectRatio="xMidYMid meet">

<g transform="translate(0.000000,1536.000000) scale(0.100000,-0.100000)"
fill="#000000" stroke="none">
<path d="M7100 14639 c-576 -35 -1228 -166 -1780 -359 -1228 -428 -2289 -1183
-3131 -2225 -501 -621 -921 -1383 -1189 -2160 -107 -311 -227 -781 -284 -1115
-110 -644 -136 -1367 -70 -2000 194 -1888 1098 -3601 2529 -4795 725 -605
1534 -1043 2428 -1314 276 -84 551 -150 511 -123 -20 13 -24 59 -34 335 -28
799 -58 1339 -85 1552 -6 49 -33 477 -40 630 -24 591 -28 847 -16 1205 15 469
21 549 96 1260 19 176 62 506 75 575 5 28 12 154 14 280 4 176 9 252 24 325
11 52 25 138 31 190 12 109 25 480 22 621 -2 53 2 114 8 136 10 38 8 46 -39
145 -90 191 -159 421 -220 729 -11 58 -37 153 -56 210 -30 84 -36 118 -36 179
1 103 -25 338 -48 435 -30 130 -43 242 -36 318 7 71 28 123 46 112 14 -8 13
-72 -1 -81 -12 -7 -5 -43 17 -89 8 -17 19 -60 24 -95 15 -101 22 -130 31 -130
5 0 11 10 13 23 28 135 56 390 56 510 0 117 21 228 61 319 25 57 29 79 29 160
1 133 16 281 31 306 10 16 10 24 1 35 -10 11 -8 19 8 40 11 14 20 32 20 40 0
21 35 97 76 166 44 74 137 169 172 177 15 3 50 10 77 15 28 6 70 17 95 25 25
8 68 16 95 19 28 3 75 12 105 20 138 34 163 37 238 30 42 -4 82 -10 87 -14 6
-4 50 -24 98 -45 96 -41 133 -41 173 -5 12 11 43 24 70 29 27 5 85 18 129 29
97 24 179 19 244 -16 26 -13 61 -23 85 -23 37 0 187 -40 226 -60 8 -5 13 -14
11 -22 -9 -32 -5 -53 12 -56 12 -2 20 4 24 17 3 12 7 21 10 21 2 0 24 -13 48
-30 24 -16 47 -30 52 -30 5 0 26 -30 47 -66 22 -36 45 -68 52 -71 8 -3 14 -10
14 -16 0 -6 7 -18 15 -27 10 -11 15 -45 17 -110 l3 -95 -30 -3 c-16 -2 -33 -7
-37 -10 -13 -13 -29 -215 -18 -226 5 -5 10 -20 10 -33 0 -13 5 -23 10 -23 6 0
10 -10 10 -22 0 -13 4 -30 10 -38 5 -8 5 -19 0 -25 -10 -12 -17 -92 -8 -100 3
-3 -9 -23 -28 -43 -19 -20 -34 -42 -34 -48 0 -5 -6 -22 -12 -37 -14 -30 -43
-35 -96 -16 -35 12 -125 -6 -230 -47 -34 -13 -73 -24 -86 -24 -13 0 -34 -9
-48 -19 -13 -11 -42 -23 -64 -27 -21 -4 -75 -24 -119 -45 -44 -22 -87 -39 -96
-39 -9 0 -28 -9 -42 -20 -14 -11 -32 -20 -40 -20 -30 0 -54 -48 -67 -132 -18
-125 -16 -243 6 -317 17 -58 23 -66 54 -78 20 -8 46 -30 59 -49 23 -33 53 -44
66 -24 4 6 24 22 46 36 50 31 53 68 8 124 -37 46 -31 64 25 74 48 9 62 1 62
-39 0 -19 3 -37 6 -41 8 -8 78 17 78 28 0 14 102 58 133 58 15 0 30 -7 33 -15
3 -8 31 -21 61 -30 35 -10 68 -28 87 -48 29 -30 35 -31 101 -29 38 1 71 6 73
11 5 14 74 0 101 -21 29 -22 91 -24 132 -2 28 14 30 19 28 62 l-3 47 43 -3
c28 -2 51 2 68 13 25 17 27 17 44 -6 10 -13 16 -30 14 -38 -12 -31 7 -82 36
-97 l29 -15 -4 -97 c-5 -115 -13 -152 -32 -152 -8 0 -17 -7 -20 -15 -4 -8 -13
-15 -21 -15 -31 0 -73 -40 -73 -71 0 -23 -4 -29 -22 -29 -34 0 -41 -9 -63 -74
-11 -36 -34 -75 -57 -99 -38 -41 -55 -89 -45 -127 4 -15 -5 -31 -29 -54 -34
-33 -44 -70 -21 -79 7 -4 6 -6 -4 -6 -22 -1 -27 -36 -28 -184 l-1 -118 37 3
c31 2 39 7 43 28 13 62 34 98 67 114 82 39 187 -1 132 -50 -14 -12 -19 -31
-19 -65 0 -55 -33 -139 -54 -139 -9 0 -19 -16 -26 -40 -6 -21 -20 -46 -33 -55
-24 -17 -117 -21 -117 -4 0 6 -16 9 -37 7 -33 -3 -38 -7 -41 -31 -2 -16 -10
-31 -18 -34 -8 -3 -14 -10 -14 -16 0 -12 -15 -30 -77 -92 -24 -23 -43 -46 -43
-50 0 -5 -22 -29 -49 -54 -26 -25 -53 -56 -60 -68 -7 -13 -21 -23 -33 -23 -13
0 -48 -27 -90 -70 -38 -39 -73 -70 -78 -70 -5 0 -12 -12 -16 -27 -4 -16 -28
-49 -55 -75 -38 -36 -49 -54 -49 -78 0 -28 -2 -30 -41 -30 -22 0 -63 -10 -90
-21 -42 -19 -61 -21 -124 -15 -91 8 -246 -9 -261 -29 -13 -17 -70 -20 -109 -5
-14 5 -54 12 -88 16 -73 7 -146 36 -178 70 -23 25 -72 33 -84 14 -3 -5 -26
-10 -51 -10 -25 0 -43 4 -40 9 6 10 -16 21 -43 21 -17 0 -51 33 -51 50 0 12
-26 12 -54 1 -17 -7 -12 -14 39 -64 32 -32 60 -55 63 -52 7 7 86 -65 94 -87 4
-10 16 -21 25 -25 10 -4 29 -14 43 -23 75 -51 144 -92 215 -129 100 -52 110
-58 164 -103 46 -40 49 -41 94 -38 15 1 44 -8 64 -20 56 -33 126 -15 258 64
32 20 81 43 109 52 78 25 271 121 345 172 148 101 305 248 466 437 173 202
245 311 245 371 0 47 17 42 40 -10 17 -41 18 -59 10 -238 -5 -106 -16 -227
-24 -268 -29 -138 -36 -265 -25 -436 l10 -163 -36 -151 c-20 -83 -67 -249
-104 -368 -38 -119 -66 -221 -64 -226 12 -18 43 35 87 151 26 68 52 125 57
128 5 4 7 -12 4 -37 -3 -24 -9 -113 -15 -198 -14 -198 -71 -744 -110 -1055
-17 -132 -42 -328 -55 -435 -25 -198 -103 -675 -150 -920 -14 -74 -30 -168
-35 -209 -14 -108 -117 -596 -169 -801 -11 -41 -22 -102 -26 -135 -8 -76 -21
-148 -90 -480 -108 -519 -204 -1090 -235 -1391 -15 -146 -42 -284 -57 -284
-10 0 -13 44 -13 218 0 119 -3 415 -7 657 -9 575 -9 662 -1 1565 10 1078 9
2260 -2 2344 -18 139 -29 183 -117 461 -59 186 -69 296 -34 362 28 52 50 76
98 106 27 17 42 35 46 54 7 33 78 130 194 265 96 111 96 112 16 170 -207 150
-247 170 -319 161 -55 -6 -75 6 -53 33 41 50 -80 39 -185 -16 -73 -39 -109
-45 -226 -41 l-55 2 24 19 c16 14 38 20 72 20 27 0 49 5 49 10 0 19 -72 10
-169 -20 -194 -60 -426 -222 -596 -417 -80 -91 -160 -202 -152 -210 6 -6 122
116 194 203 112 134 155 146 254 67 33 -27 76 -59 94 -73 19 -14 41 -34 48
-45 22 -31 29 -153 17 -267 -11 -104 -16 -121 -91 -303 -69 -168 -118 -312
-153 -449 -36 -137 -115 -555 -141 -739 -15 -109 -59 -598 -70 -782 -4 -55
-13 -192 -21 -305 -8 -113 -19 -266 -24 -340 -5 -74 -14 -234 -20 -355 -35
-734 -51 -1029 -65 -1175 -65 -684 -109 -1030 -134 -1030 -9 0 -11 -3 -5 -9
12 -12 155 -37 544 -95 58 -9 186 -20 285 -26 99 -5 268 -16 375 -22 227 -15
286 -15 555 0 222 12 444 33 610 57 424 61 964 198 1375 349 206 76 642 267
775 341 39 21 122 66 185 99 425 226 982 634 1409 1031 92 86 121 129 121 179
0 39 7 49 102 151 945 1020 1563 2256 1813 3625 75 414 105 725 112 1185 7
445 -9 738 -62 1126 -209 1536 -906 2966 -1974 4053 -285 290 -509 487 -806
711 -1066 803 -2346 1276 -3670 1355 -195 11 -636 11 -835 -1z m618 -2422 c19
-13 14 -24 -14 -31 -14 -4 -44 -24 -68 -46 -45 -41 -56 -42 -56 -4 0 34 -18
39 -51 15 l-29 -22 0 31 0 30 -56 -6 c-48 -6 -59 -4 -70 10 -10 14 -17 15 -32
7 -19 -10 -32 -6 -32 10 0 4 8 9 18 11 33 7 377 2 390 -5z m127 -19 c37 -17
33 -42 -6 -34 -17 3 -37 6 -43 6 -6 0 -17 9 -24 20 -11 18 -10 20 17 20 17 0
42 -5 56 -12z m-773 -55 c23 -20 25 -83 3 -83 -9 0 -34 11 -56 26 -45 28 -49
54 -9 65 38 11 42 10 62 -8z m127 -12 c12 -21 5 -31 -20 -31 -22 0 -33 16 -25
35 8 21 33 19 45 -4z m791 -30 c0 -13 -14 -23 -45 -33 -36 -12 -45 -13 -45 -2
0 7 8 15 19 19 10 3 26 14 36 25 20 22 35 18 35 -9z m-140 -46 c0 -8 -4 -15
-10 -15 -5 0 -10 7 -10 15 0 8 5 15 10 15 6 0 10 -7 10 -15z m-1034 -5 c25
-10 26 -12 11 -27 -13 -14 -21 -14 -41 -5 -17 7 -24 17 -20 27 7 18 14 18 50
5z m839 -40 c-5 -8 -11 -8 -17 -2 -6 6 -7 16 -3 22 5 8 11 8 17 2 6 -6 7 -16
3 -22z m295 -10 c0 -5 -4 -10 -10 -10 -5 0 -10 5 -10 10 0 6 5 10 10 10 6 0
10 -4 10 -10z m164 -56 c3 -9 3 -20 0 -25 -8 -13 -34 9 -34 27 0 19 26 18 34
-2z m-1444 1 c0 -9 -60 -35 -82 -35 l-23 1 24 19 c20 17 81 29 81 15z m465
-95 c3 -5 1 -10 -4 -10 -6 0 -11 5 -11 10 0 6 2 10 4 10 3 0 8 -4 11 -10z
m-745 -85 c0 -14 -40 -38 -49 -29 -6 5 30 44 41 44 4 0 8 -7 8 -15z m190 0 c0
-8 -4 -15 -10 -15 -5 0 -10 7 -10 15 0 8 5 15 10 15 6 0 10 -7 10 -15z m1952
-50 c0 -5 -5 -11 -11 -13 -6 -2 -11 4 -11 13 0 9 5 15 11 13 6 -2 11 -8 11
-13z m-2276 -87 c-3 -7 -9 -21 -12 -30 -7 -19 -34 -25 -34 -8 0 18 24 50 38
50 8 0 11 -6 8 -12z m2320 -56 c-22 -5 -30 3 -21 18 5 8 11 7 22 -2 15 -12 14
-13 -1 -16z m-2383 -46 c9 -7 17 -16 17 -20 0 -9 -33 -7 -49 3 -7 5 -10 14 -7
20 9 14 17 14 39 -3z m-53 -24 c0 -13 -12 -22 -22 -16 -10 6 -1 24 13 24 5 0
9 -4 9 -8z m-63 -176 c-5 -12 -11 -13 -36 -3 -32 12 -30 22 4 29 25 6 39 -6
32 -26z m-117 -75 c0 -5 -9 -11 -20 -14 -22 -6 -26 3 -8 21 11 11 28 7 28 -7z
m-80 -165 c0 -24 -16 -43 -27 -32 -8 8 6 56 17 56 6 0 10 -11 10 -24z m-25
-146 c3 -5 -1 -10 -10 -10 -9 0 -13 5 -10 10 3 6 8 10 10 10 2 0 7 -4 10 -10z
m3331 -1212 c15 -29 16 -48 5 -198 -13 -174 -25 -263 -43 -319 l-11 -34 -13
24 c-7 13 -14 44 -15 69 l-2 45 -6 -45 c-14 -90 -74 -166 -85 -107 -29 149
-30 168 -11 225 27 82 33 87 63 60 l25 -23 -8 35 c-14 71 -17 184 -4 229 16
60 25 71 60 71 22 0 32 -7 45 -32z m-1350 -176 c10 -20 20 -40 22 -44 7 -14
-47 -8 -83 9 -42 20 -46 47 -8 67 35 18 46 13 69 -32z m1290 -430 c-12 -11
-18 7 -10 30 l8 23 4 -23 c2 -13 1 -26 -2 -30z m-1 -72 c20 -63 -93 -230 -155
-230 -18 0 -11 93 10 135 11 22 20 47 20 57 0 23 56 58 92 58 18 0 29 -7 33
-20z m-3045 -1615 c0 -34 -132 -211 -150 -200 -4 3 -29 1 -55 -4 -50 -9 -115
2 -115 21 0 5 -7 8 -15 4 -8 -3 -15 -1 -15 5 0 7 10 9 24 5 16 -4 28 -1 33 7
4 7 28 23 53 36 102 52 210 113 215 122 6 9 25 13 25 4z m-1150 -405 c0 -5
-10 -10 -22 -10 -19 0 -20 2 -8 10 19 13 30 13 30 0z m-54 -19 c-3 -5 -18 -11
-33 -14 -26 -5 -26 -4 -8 9 21 15 49 19 41 5z m-141 -40 c-17 -4 -42 -15 -55
-23 -27 -17 -134 -33 -125 -18 10 17 122 48 175 48 l35 0 -30 -7z m-380 -116
c-16 -8 -45 -14 -64 -15 -19 0 -44 -8 -55 -18 -33 -29 -96 -50 -246 -85 -25
-5 -66 -10 -92 -11 -39 -1 -48 2 -48 16 0 33 101 70 260 94 58 9 125 20 150
24 25 4 63 8 85 8 l40 0 -30 -13z m2480 -385 c3 -5 15 -10 25 -10 32 0 50 -28
50 -79 0 -26 -3 -51 -6 -54 -10 -10 -64 32 -85 67 -23 37 -25 86 -5 86 8 0 18
-4 21 -10z"/>
<path d="M6344 9971 c-33 -15 -167 -107 -185 -127 -21 -25 -29 -70 -15 -87 16
-19 110 -40 146 -32 29 6 31 5 34 -27 1 -7 -14 -15 -34 -18 -27 -4 -35 -10
-35 -25 0 -11 -10 -24 -21 -29 -30 -13 -54 -57 -54 -99 0 -41 12 -53 65 -62
75 -13 150 -37 170 -55 19 -16 84 -32 130 -31 11 0 64 1 117 1 55 0 100 5 104
11 19 31 131 27 163 -6 13 -13 13 -17 -2 -33 -61 -67 49 -55 112 12 25 27 38
102 43 249 3 79 1 86 -27 126 -32 47 -78 73 -208 115 -41 14 -88 31 -104 39
-15 8 -50 20 -78 26 -27 7 -66 21 -85 33 -39 22 -198 35 -236 19z m464 -443
c25 -25 13 -45 -32 -57 -25 -6 -50 -11 -55 -11 -19 0 -12 23 16 52 29 30 52
35 71 16z m-299 -29 c18 -16 31 -32 28 -35 -8 -8 -86 18 -98 32 -6 7 -8 18 -4
24 11 18 40 11 74 -21z"/>
<path d="M7465 9000 c-15 -16 -17 -31 -12 -85 8 -86 21 -109 55 -100 15 3 37
9 49 11 29 7 58 -24 67 -69 5 -29 2 -43 -15 -67 -40 -53 -89 -35 -89 32 0 37
-1 38 -37 38 -26 0 -45 -7 -63 -24 -14 -13 -60 -58 -103 -100 -59 -57 -86 -76
-106 -76 -15 0 -31 4 -36 9 -6 5 -31 21 -57 35 -63 35 -116 35 -157 -1 -17
-15 -31 -33 -31 -39 0 -7 17 -26 38 -42 49 -39 131 -49 168 -20 24 20 24 20
56 -7 23 -19 37 -24 52 -19 12 4 50 6 86 5 58 -2 69 -5 97 -33 27 -26 37 -30
66 -24 22 4 44 1 63 -9 17 -9 56 -15 94 -15 37 0 71 -5 78 -12 8 -8 15 -8 27
2 21 18 15 53 -10 60 -74 19 -86 73 -50 220 l25 105 -43 85 c-40 80 -44 85
-87 97 -24 7 -55 24 -68 38 -28 30 -34 31 -57 5z"/>
<path d="M7804 8282 c-6 -4 -14 -15 -17 -26 -7 -16 -14 -18 -65 -12 -31 3
-112 9 -179 13 -119 6 -124 5 -200 -24 -43 -17 -98 -33 -123 -36 -26 -3 -50
-13 -57 -23 -12 -16 -20 -16 -90 -6 -102 16 -126 15 -188 -4 -59 -19 -95 -14
-124 17 -17 19 -25 20 -73 12 l-53 -8 4 -50 c1 -28 4 -51 6 -53 9 -10 558 0
741 13 87 7 104 5 127 -10 15 -9 27 -23 27 -31 0 -7 12 -17 26 -20 30 -8 112
2 128 15 6 5 27 12 47 16 20 4 51 20 69 37 41 37 95 66 137 74 18 3 35 9 38
13 2 4 -8 24 -22 44 -20 28 -33 37 -55 37 -15 0 -28 5 -28 10 0 11 -60 13 -76
2z"/>
<path d="M8132 8278 c-14 -14 -16 -48 -2 -48 10 0 30 32 30 49 0 14 -13 14
-28 -1z"/>
<path d="M8326 8098 c-9 -36 -8 -38 24 -38 27 0 30 3 30 30 0 25 -4 30 -24 30
-16 0 -26 -7 -30 -22z"/>
<path d="M6420 7422 c0 -5 7 -15 15 -22 8 -7 15 -8 15 -2 0 5 -7 15 -15 22 -8
7 -15 8 -15 2z"/>
<path d="M6138 533 c7 -3 16 -2 19 1 4 3 -2 6 -13 5 -11 0 -14 -3 -6 -6z"/>
</g>
</svg>
